{
  "accessors": [
    {
      "bufferView": 1,
      "componentType": 5126,
      "count": 671,
      "max": [
        -2.436000108718872,
        -0.0,
        -8.454000473022461
      ],
      "min": [
        -16.68600082397461,
        -17.25,
        -22.81599998474121
      ],
      "type": "VEC3"
    },
    {
      "bufferView": 1,
      "byteOffset": 8052,
      "componentType": 5126,
      "count": 671,
      "max": [
        1.0,
        1.0,
        1.0
      ],
      "min": [
        -1.0,
        -1.0,
        -1.0
      ],
      "type": "VEC3"
    },
    {
      "bufferView": 0,
      "componentType": 5125,
      "count": 1875,
      "type": "SCALAR"
    },
    {
      "bufferView": 1,
      "byteOffset": 16104,
      "componentType": 5126,
      "count": 227,
      "max": [
        -8.25,
        -12.75,
        -15.5
      ],
      "min": [
        -8.75,
        -21.738000869750977,
        -16.0
      ],
      "type": "VEC3"
    },
    {
      "bufferView": 1,
      "byteOffset": 18828,
      "componentType": 5126,
      "count": 227,
      "max": [
        1.0,
        3.1453591873287223e-06,
        1.0
      ],
      "min": [
        -1.0,
        -1.0,
        -1.0
      ],
      "type": "VEC3"
    },
    {
      "bufferView": 0,
      "byteOffset": 7500,
      "componentType": 5125,
      "count": 705,
      "type": "SCALAR"
    },
    {
      "bufferView": 1,
      "byteOffset": 21552,
      "componentType": 5126,
      "count": 174,
      "max": [
        -4.609000205993652,
        -0.7509999871253967,
        -11.0
      ],
      "min": [
        -14.75,
        -12.75,
        -21.030000686645508
      ],
      "type": "VEC3"
    },
    {
      "bufferView": 1,
      "byteOffset": 23640,
      "componentType": 5126,
      "count": 174,
      "max": [
        0.9794439077377319,
        1.0,
        0.9798810482025146
      ],
      "min": [
        -0.9794511795043945,
        -1.0,
        -0.9798810482025146
      ],
      "type": "VEC3"
    },
    {
      "bufferView": 0,
      "byteOffset": 10320,
      "componentType": 5125,
      "count": 528,
      "type": "SCALAR"
    }
  ],
  "asset": {
    "extras": {
      "author": "Emily O'Masters (https://sketchfab.com/eomasters)",
      "license": "CC-BY-4.0 (http://creativecommons.org/licenses/by/4.0/)",
      "source": "https://sketchfab.com/3d-models/iced-coffee-654c719c6bf0487c9b392d1dfad8ac6d",
      "title": "Iced Coffee"
    },
    "generator": "Sketchfab-12.67.0",
    "version": "2.0"
  },
  "bufferViews": [
    {
      "buffer": 0,
      "byteLength": 12432,
      "name": "floatBufferViews",
      "target": 34963
    },
    {
      "buffer": 0,
      "byteLength": 25728,
      "byteOffset": 12432,
      "byteStride": 12,
      "name": "floatBufferViews",
      "target": 34962
    }
  ],
  "buffers": [
    {
      "byteLength": 38160,
      "uri": "scene.bin"
    }
  ],
  "extensionsUsed": [
    "KHR_materials_clearcoat"
  ],
  "materials": [
    {
      "alphaMode": "BLEND",
      "doubleSided": true,
      "name": "color_-1023739142",
      "pbrMetallicRoughness": {
        "baseColorFactor": [
          0.980392,
          0.980392,
          0.980392,
          0.239216
        ],
        "metallicFactor": 0.0
      }
    },
    {
      "doubleSided": true,
      "name": "color_1206582",
      "pbrMetallicRoughness": {
        "baseColorFactor": [
          0.0705882,
          0.411765,
          0.211765,
          1.0
        ],
        "metallicFactor": 0.0
      }
    },
    {
      "doubleSided": true,
      "extensions": {
        "KHR_materials_clearcoat": {
          "clearcoatFactor": 1.0,
          "clearcoatRoughnessFactor": 0.04
        }
      },
      "name": "color_14860437",
      "pbrMetallicRoughness": {
        "baseColorFactor": [
          0.8014945267390892,
          0.31590726529315255,
          0.021139462248648662,
          1.0
        ],
        "metallicFactor": 0.0,
        "roughnessFactor": 0.7186019857845551
      }
    }
  ],
  "meshes": [
    {
      "name": "Object_0",
      "primitives": [
        {
          "attributes": {
            "NORMAL": 1,
            "POSITION": 0
          },
          "indices": 2,
          "material": 0,
          "mode": 4
        }
      ]
    },
    {
      "name": "Object_1",
      "primitives": [
        {
          "attributes": {
            "NORMAL": 4,
            "POSITION": 3
          },
          "indices": 5,
          "material": 1,
          "mode": 4
        }
      ]
    },
    {
      "name": "Object_2",
      "primitives": [
        {
          "attributes": {
            "NORMAL": 7,
            "POSITION": 6
          },
          "indices": 8,
          "material": 2,
          "mode": 4
        }
      ]
    }
  ],
  "nodes": [
    {
      "children": [
        1
      ],
      "matrix": [
        1.0,
        0.0,
        0.0,
        0.0,
        0.0,
        2.220446049250313e-16,
        -1.0,
        0.0,
        0.0,
        1.0,
        2.220446049250313e-16,
        0.0,
        0.0,
        0.0,
        0.0,
        1.0
      ],
      "name": "Sketchfab_model"
    },
    {
      "children": [
        2,
        3,
        4
      ],
      "name": "tinker.obj.cleaner.materialmerger.gles"
    },
    {
      "mesh": 0,
      "name": "Object_2"
    },
    {
      "mesh": 1,
      "name": "Object_3"
    },
    {
      "mesh": 2,
      "name": "Object_4"
    }
  ],
  "scene": 0,
  "scenes": [
    {
      "name": "Sketchfab_Scene",
      "nodes": [
        0
      ]
    }
  ]
}
